<svg height="800" viewBox="0 0 874.1 874.1" width="800" xmlns="http://www.w3.org/2000/svg"><path d="m50 300.05c-27.6 0-50 22.4-50 50v174c0 27.6 22.4 50 50 50s50-22.4 50-50v-174c0-27.6-22.4-50-50-50z"/><path d="m690.1 244.55c-27.6 0-50 22.4-50 50v102.5h-406v-102.5c0-27.6-22.4-50-50-50s-50 22.4-50 50v285c0 27.6 22.4 50 50 50s50-22.4 50-50v-102.5h406v102.5c0 27.6 22.4 50 50 50s50-22.4 50-50v-285c0-27.6-22.401-50-50-50z"/><path d="m824.1 300.05c-27.6 0-50 22.4-50 50v174c0 27.6 22.4 50 50 50s50-22.4 50-50v-174c0-27.6-22.401-50-50-50z"/></svg>