<svg height="800" viewBox="0 0 512 512" width="800" xmlns="http://www.w3.org/2000/svg"><path d="m255.5 48c43.845 0 84.397 8.5332 121.656 25.5996s66.715 40.2734 88.366 69.6204c21.652 29.346 32.478 61.357 32.478 96.032 0 34.674-10.826 66.73-32.478 96.168-21.651 29.437-51.062 52.689-88.231 69.755s-77.766 25.6-121.791 25.6c-13.893 0-28.238-.994-43.033-2.98-64.234 44.607-98.425 67.182-102.575 67.723-1.985.723-3.88.632-5.684-.27-.722-.542-1.263-1.265-1.624-2.168s-.541-1.715-.541-2.438v-1.083c1.083-7.044 9.292-36.39 24.629-88.041-34.8234-17.337-62.4746-40.318-82.9535-68.943-20.479-28.624-30.7185-59.732-30.7185-93.323 0-34.675 10.8259-66.686 32.4777-96.032 21.6518-29.347 51.1072-52.554 88.3663-69.6204 37.259-17.0664 77.811-25.5996 121.656-25.5996z"/></svg>